<?xml version="1.0" encoding="UTF-8" standalone="no"?>
<svg xmlns="http://www.w3.org/2000/svg" version="1.1" viewBox="0 0 48 48">
  <path
     d="m 1.4,15.42 c 3.6,0 7.56,0.23 8.51,-1.98 C 9.4,-0.58 33,3 23,19 40,26 38.33,12.62 40.11,12.37 44.01,12 49.51,29.71 41.05,37.46 35.92,42.15 33.01,43 21.63,42.93 5.08,42.83 4.89,26.78 9.72,21.23 9.7,18.84 1.4,23.82 1.4,15.42 Z"
     fill="#fdff00" stroke="#000000" stroke-width="1.2" />
  <path
     d="m 10.4,13.74 c 1.66,2.27 1.37,4.98 -0.1,7.51 C 10.3,20.78 10,20.27 9.61,20.09 9.23,19.91 8.82,19.9 8.4,19.9 7.55,19.90034 6.57,20.06 5.6,20 4.63,19.95 3.73,19.71 3.1,19.1 2.51,18.51 2.11,17.66 2,16 3.58,16 5.27,16.06 6.7,15.85 7.52,15.74 8.34,15.54 9,15.2 c 0.62,-0.32 1.09,-0.85 1.4,-1.5 z"
     fill="#daa520" />
  <circle
     cy="12.42" cx="14.4" r="3"
     fill="#fffefd" />
  <circle
     cy="12.42" cx="14.4" r="1.4"
     fill="#000" />
  <rect
     y="43" x="21" height="5" width="6"
     fill="#000" />
</svg>
